# xmcd
#
# Track frame offsets: 
#        151
#        19312
#        35779
#        52878
#        69937
#        85264
#        107493
#        121380
#        138487
#        154806
#
# Disc length: 2277 seconds
#
# Revision: 0
# Processed by: cddbd v1.5.1PL2 Copyright (c) Steve Scherf et al.
# Submitted via: ExactAudioCopy v0.95b4
#
DISCID=8108e30a
DTITLE=มนฤดี  ศรีไศล - มือถือคุณนาย
DYEAR=2002
DGENRE=Country
TTITLE0=รอคนเมียเผลอ
TTITLE1=มือถือคุณนาย
TTITLE2=ฝันร้ายสลายรัก
TTITLE3=เพื่อนเจ้าสาว
TTITLE4=น้ำอ้อยขม
TTITLE5=หัวหน้าทีม
TTITLE6=อย่าหล่อตอนเมา
TTITLE7=สาวราษีไศล
TTITLE8=ตาลอย
TTITLE9=สาวนครพนม
EXTD=
EXTT0=
EXTT1=
EXTT2=
EXTT3=
EXTT4=
EXTT5=
EXTT6=
EXTT7=
EXTT8=
EXTT9=
PLAYORDER=
